<?xml version="1.0" standalone="no"?>
<!DOCTYPE svg PUBLIC "-//W3C//DTD SVG 20010904//EN"
 "http://www.w3.org/TR/2001/REC-SVG-20010904/DTD/svg10.dtd">
<svg version="1.0" xmlns="http://www.w3.org/2000/svg"
 width="4060.000000pt" height="1648.000000pt" viewBox="0 0 4060.000000 1648.000000"
 preserveAspectRatio="xMidYMid meet">

<g transform="translate(0.000000,1648.000000) scale(0.100000,-0.100000)"
fill="#012794" stroke="none">
<path d="M25325 14050 c-1011 -57 -1925 -305 -2650 -719 -148 -84 -428 -273
-545 -366 -661 -529 -1092 -1212 -1244 -1971 -51 -258 -61 -359 -60 -664 0
-253 2 -300 23 -419 150 -870 720 -1587 1771 -2228 200 -122 384 -221 785
-423 215 -108 455 -234 535 -280 575 -329 849 -605 915 -918 19 -89 19 -255
-1 -350 -21 -101 -66 -208 -125 -296 -60 -91 -200 -226 -304 -295 -234 -154
-569 -265 -960 -318 -160 -21 -721 -24 -945 -5 -789 68 -1358 225 -2164 596
-115 53 -210 95 -211 94 -5 -7 -527 -2459 -524 -2462 20 -16 248 -103 424
-162 640 -213 1425 -356 2285 -415 238 -17 886 -17 1100 -1 1177 91 2102 370
2865 867 365 237 710 559 958 891 337 455 549 987 631 1589 38 275 40 650 6
900 -106 768 -529 1411 -1295 1970 -321 234 -636 421 -1310 775 -625 329 -840
458 -1061 636 -271 219 -396 444 -380 685 28 425 427 762 1052 888 494 100
1211 71 1869 -75 335 -75 731 -203 1033 -334 75 -33 139 -56 143 -52 11 12
510 2362 504 2371 -6 11 -445 157 -615 205 -510 142 -978 228 -1492 271 -215
19 -798 27 -1013 15z"/>
<path d="M2265 13838 c-15 -48 -62 -304 -57 -309 4 -3 34 -11 67 -18 141 -29
638 -154 855 -215 823 -230 1566 -510 1975 -746 325 -186 459 -347 574 -685
22 -66 157 -572 300 -1125 143 -553 366 -1417 496 -1920 130 -503 287 -1113
350 -1355 192 -740 1113 -4306 1171 -4535 31 -118 62 -239 70 -267 l15 -53
1538 0 1538 0 663 1583 c365 870 709 1692 766 1827 56 135 220 526 364 870
896 2138 1714 4091 2267 5410 350 833 638 1523 640 1533 5 16 -70 17 -1521 15
l-1527 -3 -395 -1000 c-218 -550 -681 -1720 -1029 -2600 -348 -880 -848 -2144
-1110 -2810 -263 -665 -481 -1214 -485 -1218 -4 -4 -21 65 -38 155 -32 166
-403 2142 -692 3678 -522 2779 -508 2705 -534 2795 -73 251 -189 450 -365 625
-152 151 -330 258 -531 320 -206 64 -24 60 -2817 60 -2026 0 -2544 -3 -2548
-12z"/>
<path d="M17115 13838 c-3 -7 -142 -656 -310 -1443 -395 -1848 -594 -2776
-860 -4020 -119 -555 -285 -1334 -370 -1730 -85 -396 -258 -1206 -385 -1800
-127 -594 -285 -1332 -351 -1640 -65 -308 -122 -568 -125 -577 -5 -17 69 -18
1450 -18 l1456 0 5 23 c3 12 197 918 430 2012 234 1095 551 2577 705 3295 153
718 385 1802 515 2410 130 608 351 1640 491 2294 140 654 254 1193 254 1198 0
4 -653 8 -1450 8 -1151 0 -1452 -3 -1455 -12z"/>
<path d="M33135 13834 c-418 -73 -774 -339 -963 -719 -21 -44 -108 -244 -192
-445 -84 -201 -269 -644 -412 -985 -143 -341 -381 -908 -528 -1260 -147 -352
-379 -905 -515 -1230 -136 -324 -287 -684 -335 -800 -48 -115 -257 -613 -463
-1105 -206 -492 -567 -1354 -802 -1915 -235 -561 -549 -1310 -697 -1665 -398
-950 -458 -1093 -458 -1097 0 -2 687 -2 1526 -1 l1526 3 302 835 301 835 1867
3 1866 2 6 -27 c95 -454 337 -1614 341 -1630 l5 -23 1346 0 c1277 0 1345 1
1340 18 -3 9 -159 753 -346 1652 -188 899 -402 1925 -476 2280 -74 355 -148
708 -164 785 -24 118 -325 1557 -735 3520 -52 248 -182 871 -289 1385 -319
1528 -326 1564 -332 1583 -5 16 -76 17 -1322 16 -1082 -1 -1331 -3 -1397 -15z
m849 -3924 c102 -487 298 -1425 435 -2085 138 -660 251 -1208 251 -1218 0 -16
-71 -17 -1200 -17 -751 0 -1200 4 -1200 9 0 9 88 254 540 1501 93 256 298 821
455 1255 158 435 341 940 408 1124 66 184 122 330 124 325 1 -5 86 -407 187
-894z"/>
</g>
</svg>
